<?xml version="1.0"?>
<svg xmlns="http://www.w3.org/2000/svg" id="Icons" viewBox="0 0 74 74" width="512" height="512"><title>1</title><path d="M63,72H11a1,1,0,0,1-1-1V21a1,1,0,0,1,1-1H63a1,1,0,0,1,1,1V71A1,1,0,0,1,63,72ZM12,70H62V22H12Z"/><path d="M45,4H42.03a1,1,0,0,1,0-2H45a1,1,0,0,1,0,2Z"/><path d="M66,22H8a2,2,0,0,1-2-2V4A2,2,0,0,1,8,2H25.13a1,1,0,0,1,0,2H8V20H66V4H52a1,1,0,0,1,0-2H66a2,2,0,0,1,2,2V20A2,2,0,0,1,66,22Z"/><path d="M35.03,4h-2.9a1,1,0,1,1,0-2h2.9a1,1,0,0,1,0,2Z"/><path d="M29.762,16.32h-1.29l-1-2.628H23.851L22.9,16.32H21.687l3.319-8.64h1.232Zm-2.628-3.536L25.613,8.776l-1.45,4.008Z"/><path d="M29.762,16.445h-1.29a.126.126,0,0,1-.117-.08l-.971-2.549H23.938l-.924,2.547a.124.124,0,0,1-.118.082H21.688a.124.124,0,0,1-.117-.17l3.318-8.64a.124.124,0,0,1,.117-.08h1.232a.125.125,0,0,1,.116.077l3.524,8.641a.125.125,0,0,1-.012.117A.123.123,0,0,1,29.762,16.445Zm-1.2-.25h1.018l-3.422-8.39H25.092L21.87,16.2h.939l.924-2.546a.125.125,0,0,1,.118-.083H27.47a.125.125,0,0,1,.116.081Zm-1.424-3.286H24.163a.124.124,0,0,1-.1-.054.128.128,0,0,1-.016-.114L25.5,8.733a.125.125,0,0,1,.117-.082h0a.124.124,0,0,1,.116.08l1.521,4.008a.125.125,0,0,1-.116.17Zm-2.793-.25h2.612L25.616,9.136Z"/><path d="M39.909,8.705H37.05V16.32H35.9V8.705H33.066V7.68h6.843Z"/><path d="M37.05,16.445H35.9a.125.125,0,0,1-.125-.125V8.83h-2.71a.125.125,0,0,1-.125-.125V7.68a.125.125,0,0,1,.125-.125h6.843a.125.125,0,0,1,.125.125V8.705a.125.125,0,0,1-.125.125H37.175v7.49A.125.125,0,0,1,37.05,16.445Zm-1.024-.25h.9V8.705a.125.125,0,0,1,.125-.125h2.734V7.805H33.191V8.58H35.9a.125.125,0,0,1,.125.125Z"/><path d="M52.312,16.32H51.228V8.97l-2.464,7.35H47.739L45.275,8.97v7.35H44.191V7.68h1.715l2.34,7.2L50.6,7.68h1.715Z"/><path d="M52.312,16.445H51.228a.125.125,0,0,1-.125-.125V9.737l-2.22,6.623a.125.125,0,0,1-.119.085H47.739a.125.125,0,0,1-.119-.085L45.4,9.737V16.32a.125.125,0,0,1-.125.125H44.19a.126.126,0,0,1-.125-.125V7.68a.126.126,0,0,1,.125-.125h1.716a.122.122,0,0,1,.118.086l2.222,6.838,2.233-6.838a.122.122,0,0,1,.118-.086h1.715a.126.126,0,0,1,.126.125v8.64A.126.126,0,0,1,52.312,16.445Zm-.959-.25h.835V7.805h-1.5l-2.324,7.116a.122.122,0,0,1-.118.086h0a.124.124,0,0,1-.119-.086L45.815,7.805h-1.5V16.2h.835V8.971a.126.126,0,0,1,.105-.124.131.131,0,0,1,.139.084L47.829,16.2h.845l2.435-7.264a.131.131,0,0,1,.139-.084.126.126,0,0,1,.105.124Z"/><path d="M55.5,41.731H18.5a1,1,0,0,1-1-1V28a1,1,0,0,1,1-1H55.5a1,1,0,0,1,1,1V40.731A1,1,0,0,1,55.5,41.731Zm-35.992-2H54.5V29H19.5Z"/><path d="M54.583,49H53.374a1,1,0,1,1,0-2h1.209a1,1,0,0,1,0,2Z"/><path d="M47.105,49H45.9a1,1,0,0,1,0-2h1.21a1,1,0,0,1,0,2Z"/><path d="M39.626,49H38.417a1,1,0,0,1,0-2h1.209a1,1,0,1,1,0,2Z"/><path d="M54.583,55.521H53.374a1,1,0,0,1,0-2h1.209a1,1,0,0,1,0,2Z"/><path d="M47.105,55.521H45.9a1,1,0,1,1,0-2h1.21a1,1,0,1,1,0,2Z"/><path d="M39.626,55.521H38.417a1,1,0,0,1,0-2h1.209a1,1,0,0,1,0,2Z"/><path d="M54.583,62.042H53.374a1,1,0,1,1,0-2h1.209a1,1,0,0,1,0,2Z"/><path d="M47.105,62.042H45.9a1,1,0,0,1,0-2h1.21a1,1,0,0,1,0,2Z"/><path d="M39.626,62.042H38.417a1,1,0,0,1,0-2h1.209a1,1,0,1,1,0,2Z"/><path d="M33,49H21a1,1,0,0,1,0-2H33a1,1,0,0,1,0,2Z"/></svg>
