<?xml version="1.0"?>
<svg xmlns="http://www.w3.org/2000/svg" id="Outline" viewBox="0 0 512 512" width="512" height="512"><path d="M479.977,263.386A8,8,0,0,0,472,256H357.21l-5.22-104.4A8,8,0,0,0,344,144H288V104a71.975,71.975,0,0,0-96-67.872A71.975,71.975,0,0,0,96,104v40H40a8,8,0,0,0-7.99,7.6l-16,320A8,8,0,0,0,24,480H488a8,8,0,0,0,7.977-8.614ZM456,438.422,473.052,464h-34.1Zm21.676,3.669-13.914-20.87L448.84,272h15.752ZM432.76,272l15,149.946L430.2,448.28,416.639,272Zm-91.57-16H326.133l-5.648-96h15.9Zm-36.733-96,5.648,96h-16.9l-4.8-96ZM216,48a56.064,56.064,0,0,1,56,56v40H240V104a71.886,71.886,0,0,0-26.727-55.931C214.177,48.026,215.085,48,216,48Zm-24,5.414A56.069,56.069,0,0,1,224,104v40H160V104A56.069,56.069,0,0,1,192,53.414ZM112,104a56.064,56.064,0,0,1,56-56c.915,0,1.823.026,2.727.069A71.883,71.883,0,0,0,144,104v40H112Zm96.592,360H32.41l15.2-304H96v51.719L75.562,225.344A8,8,0,0,0,72,232v64a8,8,0,0,0,8,8h48a8,8,0,0,0,8-8V232a8,8,0,0,0-3.562-6.656L112,211.719V160H224v24a8,8,0,0,0,16,0V160h32.39l4.8,96H232a8,8,0,0,0-7.977,7.386ZM104,225.615l16,10.666V288H88V236.281ZM239.408,272H400.592l14.769,192H224.639Z"/><path d="M360,304a8,8,0,0,0-8,8v64a24.027,24.027,0,0,1-24,24H312a24.027,24.027,0,0,1-24-24V312a8,8,0,0,0-16,0v64a40.045,40.045,0,0,0,40,40h16a40.045,40.045,0,0,0,40-40V312A8,8,0,0,0,360,304Z"/></svg>
