<svg id="Capa_1" enable-background="new 0 0 512.004 512.004" height="512" viewBox="0 0 512.004 512.004" width="512" xmlns="http://www.w3.org/2000/svg"><path d="m511.961 130.681c-.253-2.505-1.826-4.78-4.067-5.917l-240.01-121.756c-7.723-3.945-16.053-3.941-23.777.005l-90.791 46.058c-3.693 1.874-5.169 6.388-3.295 10.082 1.875 3.695 6.388 5.169 10.082 3.295l75.926-38.517-66.546 100.021h-79.233-51.388l90.022-45.668c3.694-1.874 5.17-6.388 3.296-10.082-1.874-3.695-6.388-5.169-10.082-3.295l-117.991 59.857c-2.476 1.25-4.125 3.907-4.106 6.688v9.625c0 26.95 21.925 48.875 48.875 48.875 17.412 0 32.716-9.159 41.375-22.905 8.659 13.746 23.963 22.905 41.375 22.905s32.716-9.159 41.375-22.905c8.659 13.746 23.963 22.905 41.375 22.905 6.978 0 13.614-1.48 19.625-4.127v25.127c0 4.142 3.357 7.5 7.5 7.5s7.5-3.358 7.5-7.5v-35.417c2.552-2.564 4.813-5.414 6.75-8.489 2.308 3.663 5.083 7.002 8.25 9.927v109.978h-15v-41c0-4.142-3.357-7.5-7.5-7.5s-7.5 3.358-7.5 7.5v41h-32.577c-3.887 0-7.729-1.015-11.108-2.933l-.789-.449c-21.857-12.604-49.921-9.297-68.246 8.043l-18.197 17.217c-3.45 3.266-5.444 7.863-5.472 12.614-.026 4.751 1.917 9.37 5.33 12.673l21.111 20.431c3.399 3.29 7.869 5.034 12.605 4.919 4.729-.118 9.113-2.085 12.346-5.54l11.809-12.624c3.136-3.353 7.78-4.654 12.081-3.608l-43.019 73.172c-.022.039-.045.077-.066.116-5.315 9.422-3.179 21.342 5.081 28.343 4.121 3.492 9.251 5.201 14.402 5.201 6.319 0 12.67-2.573 17.221-7.582l38.976-42.89c7.744-8.523 17.658-14.644 28.513-17.865v87.76h-125.002c-4.143 0-7.5 3.358-7.5 7.5s3.357 7.5 7.5 7.5h15v18h-68v-5.5c0-6.893 5.607-12.5 12.5-12.5h5.5c4.143 0 7.5-3.358 7.5-7.5s-3.357-7.5-7.5-7.5h-5.5c-15.163 0-27.5 12.336-27.5 27.5v8c0 6.893 5.607 12.5 12.5 12.5h405c6.893 0 12.5-5.607 12.5-12.5v-8c0-15.164-12.337-27.5-27.5-27.5h-164.5v-88.811c12.414 2.808 23.826 9.356 32.513 18.916l38.976 42.89c8.262 9.091 22.447 10.157 31.623 2.38 8.26-7.001 10.396-18.92 5.082-28.341l-12.565-22.289c-2.034-3.608-6.607-4.885-10.217-2.85-3.607 2.034-4.884 6.608-2.85 10.216l12.566 22.291c1.786 3.166 1.064 7.173-1.716 9.529-3.083 2.612-7.938 2.15-10.822-1.025l-38.976-42.89c-14.657-16.129-35.562-25.38-57.355-25.38h-13.518c-21.794 0-42.698 9.25-57.355 25.38l-38.976 42.89c-2.887 3.176-7.741 3.637-10.822 1.025-2.766-2.344-3.494-6.323-1.743-9.481l47.121-80.15c1.029-1.752 1.305-3.848.762-5.806-.544-1.958-1.858-3.613-3.645-4.583l-4.005-2.178c-11.001-5.983-24.664-3.776-33.222 5.372l-11.808 12.624c-.623.666-1.373.781-1.765.791-.381.015-1.146-.069-1.801-.703l-21.111-20.431c-.668-.646-.764-1.412-.762-1.81.003-.399.107-1.164.781-1.802l18.196-17.217c13.546-12.817 34.289-15.262 50.486-5.921l.833.474c5.634 3.199 12.037 4.89 18.516 4.89h77.238c17.462 0 33.47-9.541 41.778-24.898l11.452-21.169c5.513-10.19 15.088-17.771 26.271-20.8l17.84-4.828v2.889c0 6.796 1.848 13.467 5.344 19.293l5.474 9.124c8.624 14.373 13.182 30.83 13.182 47.591.451 3.437-1.855 6.835-5.5 6.802h-6.342c-1.973.074-3.503-1.148-4.806-2.479l-22.145-17.858c-1.69-1.363-3.883-1.928-6.024-1.546-2.137.381-4.004 1.669-5.119 3.532l-14.681 24.527c-1.412 2.358-2.381 4.645-2.963 6.992-1.692 6.836-.72 13.98 2.739 20.116l9.181 16.285c2.033 3.608 6.608 4.885 10.217 2.85 3.607-2.034 4.884-6.608 2.85-10.216l-9.181-16.285c-1.572-2.79-2.015-6.037-1.246-9.142.216-.871.645-1.846 1.274-2.897l10.251-17.125 15.062 12.146c3.836 3.885 9.119 6.101 14.591 6.101h6.342c11.812.04 21.158-10.061 20.5-21.802 0-19.479-5.298-38.604-15.319-55.308l-5.475-9.124c-2.098-3.496-3.206-7.499-3.206-11.576v-4.849c0-4.238-1.931-8.146-5.296-10.722-3.367-2.576-7.644-3.416-11.733-2.309l-19.73 5.344c-15.129 4.098-28.083 14.354-35.542 28.141l-11.452 21.169c-5.63 10.408-16.432 16.901-28.246 17.024v-100.488c5.609 2.249 11.722 3.499 18.125 3.499 17.412 0 32.716-9.159 41.375-22.905 8.659 13.746 23.963 22.905 41.375 22.905s32.716-9.159 41.375-22.905c8.725 13.883 24.324 23.091 41.875 22.905 26.95 0 48.875-21.925 48.875-48.875-.015-.174.037-10.617-.04-10.397zm-221.961 348.272v18h-68v-18zm15 0h68v18h-68zm-166 0h68v18h-68zm317 12.5v5.5h-68v-18h55.5c6.893 0 12.5 5.607 12.5 12.5zm-192-117.863v90.363h-15v-90.29c1.789-.131 12.981-.054 15-.073zm157.25-249.637h-78.732l-66.546-100.022 197.166 100.021h-51.888zm-165.5 0h-68.252l68.502-102.961 68.502 102.961zm-206.875 51c-18.679 0-33.875-15.197-33.875-33.875v-2.125h67.75v2.125c0 18.678-15.196 33.875-33.875 33.875zm82.75 0c-18.679 0-33.875-15.196-33.875-33.875v-2.125h67.75v2.125c0 18.678-15.196 33.875-33.875 33.875zm82.75 0c-18.679 0-33.875-15.196-33.875-33.875v-2.125h67.75v2.125c0 18.678-15.196 33.875-33.875 33.875zm82.75 0c-18.679 0-33.875-15.196-33.875-33.875v-2.125h67.75v2.125c0 18.678-15.196 33.875-33.875 33.875zm82.75 0c-18.679 0-33.875-15.196-33.875-33.875v-2.125h67.75v2.125c0 18.678-15.196 33.875-33.875 33.875zm117.125-33.875c.016 18.858-15.525 34.157-34.375 33.875-18.679 0-33.875-15.196-33.875-33.875v-2.125h68.25z"/></svg>